<svg width="24" height="25" viewBox="0 0 24 25" fill="none" xmlns="http://www.w3.org/2000/svg">
<path fill-rule="evenodd" clip-rule="evenodd" d="M20.8126 7.5L22.0726 15.84C22.5826 19.49 20.0726 22.81 16.6726 22.84H7.41262C4.07262 22.84 1.53262 19.49 2.07262 15.84L3.33262 7.5C3.63175 4.74237 5.9013 2.61732 8.67262 2.5H15.4726C18.2439 2.61732 20.5135 4.74237 20.8126 7.5ZM8.17262 8.45C8.17812 10.6016 9.92099 12.3445 12.0726 12.35C14.2243 12.3445 15.9671 10.6016 15.9726 8.45C15.9726 8.03579 15.6368 7.7 15.2226 7.7C14.8084 7.7 14.4726 8.03579 14.4726 8.45C14.4726 9.77548 13.3981 10.85 12.0726 10.85C10.7471 10.85 9.67262 9.77548 9.67262 8.45C9.67262 8.03579 9.33684 7.7 8.92262 7.7C8.50841 7.7 8.17262 8.03579 8.17262 8.45Z" fill="#BC4749"/>
</svg>
